HIERARCHY
ROOT Hips
{
	OFFSET	0.000000	0.000000	0.000000
	CHANNELS 6 Xposition Yposition Zposition Zrotation Xrotation Yrotation
	JOINT LeftHip
	{
		OFFSET	4.740440	-3.195970	-0.322709
		CHANNELS 3 Zrotation Xrotation Yrotation
		JOINT LeftKnee
		{
			OFFSET	-1.605680	-15.592300	1.005510
			CHANNELS 3 Zrotation Xrotation Yrotation
			JOINT LeftAnkle
			{
				OFFSET	-0.632401	-16.421000	-1.413730
				CHANNELS 3 Zrotation Xrotation Yrotation
				End Site
				{
					OFFSET	0.008423	-3.933000	-1.776750
				}
			}
		}
	}
	JOINT RightHip
	{
		OFFSET	-4.740440	-3.195970	-0.322709
		CHANNELS 3 Zrotation Xrotation Yrotation
		JOINT RightKnee
		{
			OFFSET	1.605680	-15.592300	1.005510
			CHANNELS 3 Zrotation Xrotation Yrotation
			JOINT RightAnkle
			{
				OFFSET	0.632401	-16.421000	-1.413730
				CHANNELS 3 Zrotation Xrotation Yrotation
				End Site
				{
					OFFSET	-0.008423	-3.933000	-1.776750
				}
			}
		}
	}
	JOINT Chest
	{
		OFFSET	0.000000	3.468200	0.078401
		CHANNELS 3 Zrotation Xrotation Yrotation
		JOINT LeftCollar
		{
			OFFSET	3.857650	15.070700	-0.011583
			CHANNELS 3 Zrotation Xrotation Yrotation
			JOINT LeftShoulder
			{
				OFFSET	3.979720	-1.940530	-0.165223
				CHANNELS 3 Zrotation Xrotation Yrotation
				JOINT LeftElbow
				{
					OFFSET	0.615844	-10.986600	-0.673886
					CHANNELS 3 Zrotation Xrotation Yrotation
					JOINT LeftWrist
					{
						OFFSET	0.826843	-10.854500	1.034220
						CHANNELS 3 Zrotation Xrotation Yrotation
						End Site
						{
							OFFSET	-1.679080	-8.456540	0.936217
						}
					}
				}
			}
		}
		JOINT RightCollar
		{
			OFFSET	-3.857650	15.070700	-0.011583
			CHANNELS 3 Zrotation Xrotation Yrotation
			JOINT RightShoulder
			{
				OFFSET	-3.979720	-1.940530	-0.165223
				CHANNELS 3 Zrotation Xrotation Yrotation
				JOINT RightElbow
				{
					OFFSET	-0.615845	-10.986600	-0.673886
					CHANNELS 3 Zrotation Xrotation Yrotation
					JOINT RightWrist
					{
						OFFSET	-0.826843	-10.854500	1.034220
						CHANNELS 3 Zrotation Xrotation Yrotation
						End Site
						{
							OFFSET	1.679080	-8.456540	0.936217
						}
					}
				}
			}
		}
		JOINT Neck
		{
			OFFSET	0.000000	15.101400	0.055730
			CHANNELS 3 Zrotation Xrotation Yrotation
			JOINT Head
			{
				OFFSET	0.000000	4.185120	1.488260
				CHANNELS 3 Zrotation Xrotation Yrotation
				End Site
				{
					OFFSET	0.000000	7.773420	-0.106016
				}
			}
		}
	}
}
MOTION
Frames:     19
Frame Time: 0.016667
3.111196	37.145267	14.220552	4.773956	-11.748158	-1.417217	-9.073558	21.068512	0.928201	0.653892	12.081928	5.542458	4.212614	-17.473585	6.424073	-11.164217	-19.325201	0.436720	1.301136	7.759202	-3.826182	6.551342	9.864960	-2.295037	0.120093	23.030027	-7.177655	-1.633667	-0.039724	-0.460590	9.336357	-8.081687	4.015831	-6.356843	-14.547014	-18.993132	15.679997	-3.033999	-25.324314	-0.600708	2.522365	1.117723	-6.252680	6.248139	-12.648271	-10.570344	-8.093930	25.214968	-11.825335	-5.903428	6.976088	4.344024	-11.544883	-0.690162	-1.679607	-6.818235	7.896356	
2.971560	37.156841	14.845198	4.972672	-11.712116	-1.304605	-8.885852	21.730175	0.989111	0.477385	12.521322	5.319933	3.723685	-16.614307	6.274429	-11.156199	-19.107800	-0.264822	1.361182	9.137756	-3.442077	6.771828	10.677682	-2.167264	0.059576	23.055040	-7.255267	-1.466312	-0.099368	-0.645425	9.335281	-7.920574	4.179260	-6.698317	-15.171119	-19.274088	15.916253	-3.254765	-25.151384	-0.515352	2.493645	0.943072	-6.027259	6.534710	-12.675018	-11.119775	-6.794257	25.049351	-11.398359	-5.558053	7.475174	4.505664	-11.843604	-0.714248	-1.745921	-6.880359	7.868057	
2.824853	37.195671	15.518013	5.120215	-11.520101	-1.189956	-8.562741	22.228497	0.833345	0.252831	12.992822	5.200801	3.015173	-15.378603	6.080932	-11.190951	-18.935713	-0.799884	1.519617	10.269484	-3.516624	7.154552	12.146069	-1.553621	0.006297	22.892431	-7.347638	-1.330503	-0.144390	-0.713270	9.342490	-7.694734	4.287240	-7.033320	-15.690701	-19.573477	16.159170	-3.549595	-24.994343	-0.382596	2.505395	0.787341	-5.777986	6.730913	-12.670013	-11.669468	-5.492890	24.831116	-11.033681	-5.248841	7.923062	4.718919	-12.188956	-0.771620	-1.873635	-6.814705	7.912090	
2.662261	37.248901	16.230980	5.178957	-11.221445	-1.157450	-8.129931	22.559145	0.590603	0.031634	13.580838	5.191333	2.239487	-13.820394	5.860309	-11.218974	-18.845026	-1.008661	2.035233	11.415837	-3.158037	7.166169	12.721347	-1.638163	-0.012314	22.607996	-7.370361	-1.098192	-0.155360	-0.770949	9.228213	-7.390797	4.494708	-7.345648	-16.109781	-19.881903	16.432060	-3.873005	-24.894316	-0.194489	2.546829	0.621299	-5.543344	6.839658	-12.673025	-12.202320	-4.239719	24.616632	-10.731591	-4.971873	8.266927	5.038622	-12.533294	-0.742899	-2.088740	-6.700359	7.800593	
2.465155	37.312351	16.975431	5.166182	-10.874253	-1.083713	-7.514151	22.695704	0.220733	-0.242979	14.411185	5.264733	1.530206	-11.933509	5.681017	-10.990667	-18.673489	-1.201826	2.386653	12.554382	-2.574481	7.188627	12.872910	-2.056000	0.118386	22.269440	-7.576294	-0.847417	-0.234769	-0.733816	8.970793	-6.910833	4.614281	-7.523525	-16.499084	-20.066679	16.636356	-4.179840	-24.816427	-0.066778	2.587214	0.559424	-5.273841	6.834121	-12.718613	-12.748077	-3.018522	24.373552	-10.534141	-4.729868	8.481974	5.347739	-12.804642	-0.350368	-2.363139	-6.613822	7.446290	
2.244448	37.370327	17.758379	4.987444	-10.750146	-1.147124	-6.735770	22.927988	-0.025948	-0.579691	15.514415	5.442354	1.007688	-9.731174	5.547185	-10.695441	-18.093184	-1.317431	2.818683	13.424700	-2.146711	6.937788	12.129077	-2.277091	0.440114	22.155249	-7.795412	-0.800166	-0.305561	-0.608132	8.831097	-6.351501	4.614195	-7.698757	-16.889843	-20.095242	16.800619	-4.364715	-24.801783	-0.054219	2.642401	0.601199	-4.941798	6.756811	-12.778726	-13.253902	-1.924433	23.990347	-10.413104	-4.453566	8.715931	5.562393	-13.171237	0.328474	-2.603964	-6.371480	6.892418	
1.975465	37.411484	18.564835	4.707007	-10.702454	-1.248168	-5.753280	23.008385	-0.298981	-1.025367	17.007053	5.851294	0.641805	-7.257207	5.427713	-10.596255	-17.213232	-1.629596	3.308126	13.954659	-1.745438	7.331243	13.138025	-2.345820	0.761331	22.108349	-7.898030	-0.175298	-0.551054	-0.654153	8.259195	-5.530873	4.617755	-7.971248	-17.230221	-20.188234	17.014442	-4.370988	-24.716074	-0.038808	2.686009	0.574323	-4.492272	6.606279	-12.750706	-13.735091	-0.939023	23.415174	-10.335162	-4.137644	8.878025	5.836099	-13.506016	0.976475	-2.858574	-6.124823	6.279750	
1.716269	37.498177	19.375423	4.394258	-10.519009	-1.369517	-4.609705	22.692297	-0.614772	-1.660686	18.944082	6.534208	0.547808	-4.601589	5.275151	-10.116514	-16.354504	-1.839617	3.418452	14.262944	-1.262591	6.828732	13.437198	-2.260074	1.045932	21.933002	-7.826260	0.226598	-0.772712	-0.766423	8.128510	-4.661052	4.655550	-8.474406	-17.536633	-20.559336	17.133945	-4.283682	-24.551128	-0.065699	2.707808	0.298407	-3.960836	6.330695	-12.577991	-14.140563	-0.096436	22.835701	-10.231703	-3.767158	8.965826	6.146079	-13.723561	1.541181	-3.140756	-5.908619	5.641392	
1.412350	37.729679	20.058754	3.961082	-10.234466	-1.646066	-3.336939	21.915104	-0.522266	-2.282609	21.470533	7.194385	0.885124	-1.535551	5.098114	-8.974356	-15.763354	-1.552361	3.417229	14.607213	-0.609478	5.374713	13.269691	-2.315267	1.434393	21.622009	-7.631918	0.486207	-1.040592	-0.824434	8.315671	-3.702730	4.897336	-9.296171	-17.702122	-21.393742	17.088614	-4.244436	-24.302654	-0.187519	2.719954	0.038186	-3.408729	6.017393	-12.275291	-14.461669	0.560739	22.191565	-10.081995	-3.423462	9.080997	6.359800	-13.825838	2.134684	-3.394514	-5.741561	4.956932	
1.136536	37.897186	20.749798	3.461405	-10.010880	-2.047132	-1.866288	20.747513	-0.129879	-3.061779	24.698099	7.540969	1.605665	1.538827	5.119660	-7.718687	-15.225762	-1.241271	3.181540	15.255057	-0.020124	4.399217	12.548958	-2.302842	1.851833	21.352518	-7.284121	0.698332	-1.292728	-0.841196	8.705865	-2.810785	5.014304	-10.295098	-17.680326	-22.387728	16.921192	-4.406681	-23.912724	-0.335662	2.649575	-0.197350	-2.913566	5.744445	-11.981385	-14.661329	0.999911	21.652840	-9.898088	-3.192665	9.218737	6.416798	-13.972284	2.634849	-3.490442	-5.472962	4.334206	
0.946296	38.022030	21.438316	2.885687	-9.848510	-2.504271	-0.271535	19.213167	0.166982	-4.077711	28.652477	7.848773	2.193711	4.108816	5.597915	-6.620209	-14.596451	-1.178052	2.980629	15.952657	0.648309	3.831155	11.497142	-2.260546	2.316996	21.173986	-6.894424	0.861159	-1.570990	-0.815035	9.320974	-2.027225	4.879377	-11.297157	-17.446268	-23.226484	16.539722	-4.866992	-23.465431	-0.475321	2.580126	-0.355947	-2.487728	5.393979	-11.738653	-14.718106	1.204386	21.298473	-9.759145	-3.036901	9.310514	6.441378	-14.170438	3.102591	-3.615652	-5.101071	3.720640	
0.804007	38.119099	22.084658	2.242993	-9.797428	-2.869996	1.189336	17.381142	0.201490	-5.129844	33.214886	8.182149	2.548332	6.160404	6.602980	-5.758292	-13.764378	-1.334388	3.130592	16.477886	1.191019	3.112318	10.422785	-2.143950	2.785658	21.113586	-6.618155	1.106017	-1.814920	-0.759359	9.829965	-1.445724	4.749157	-12.051461	-16.936749	-24.089287	15.960781	-5.563257	-22.902020	-0.487336	2.560990	-0.429294	-2.180790	4.973338	-11.469305	-14.631932	1.154040	21.069756	-9.663854	-3.055476	9.426179	6.565274	-14.330992	3.552407	-3.739113	-4.697282	3.205459	
0.681355	38.180054	22.705299	1.451854	-9.828014	-3.109299	2.480632	15.326639	-0.042650	-5.948688	38.078598	8.423455	2.810025	7.910968	8.217406	-4.826220	-12.811709	-1.433436	3.351765	16.950191	1.456641	2.511303	9.231659	-2.107225	3.277789	21.069939	-6.440553	1.429186	-1.947758	-0.667699	10.107600	-0.982787	4.616758	-12.355598	-16.309032	-24.867065	15.144119	-6.323132	-22.379038	-0.327482	2.643535	-0.328251	-1.974196	4.509674	-11.292242	-14.433270	0.838836	21.039434	-9.604308	-3.209383	9.468349	6.830659	-14.261218	3.933781	-3.846685	-4.434214	2.812583	
0.525959	38.206646	23.305197	0.537271	-9.838301	-3.223892	3.715001	13.163880	-0.240506	-6.481406	42.784943	8.243010	3.332732	9.548469	10.051001	-3.705335	-11.840096	-1.514357	3.528834	17.359522	1.583724	2.035430	7.940957	-2.129244	3.779288	21.002123	-6.253888	1.817870	-1.915512	-0.596695	10.279401	-0.674495	4.633220	-12.373966	-15.722249	-25.464325	14.076365	-6.922795	-22.212278	0.029289	2.682560	-0.172753	-1.911779	4.059415	-11.098239	-14.087385	0.347603	21.113337	-9.694377	-3.465014	9.333289	7.210147	-14.173079	4.073441	-3.992437	-4.184757	2.513177	
0.372390	38.217545	23.887867	-0.395880	-9.944178	-3.436033	4.917945	11.141341	-0.082963	-6.996354	47.201813	8.058956	3.808139	10.236320	11.746208	-2.608660	-10.786070	-1.507385	3.828988	17.713945	1.854193	1.547052	6.702477	-2.374415	4.143076	21.092577	-5.738191	2.205851	-1.826502	-0.624063	10.364231	-0.517770	4.808616	-12.248122	-15.250126	-25.797617	13.002254	-7.092371	-22.590788	0.535754	2.709984	-0.006626	-1.929803	3.520094	-10.833958	-13.431871	-1.024591	21.611214	-9.908924	-3.028917	8.862290	7.520782	-13.904514	4.084754	-4.034878	-4.102466	2.167299	
0.218203	38.230446	24.471031	-1.219189	-10.156881	-3.901022	6.027074	9.267721	0.528116	-7.326272	51.241932	8.084575	4.295124	8.746848	12.522974	-1.622925	-9.641012	-1.081826	4.215880	18.002514	1.968176	1.090998	5.521854	-2.671167	4.554334	21.348394	-5.039889	2.265980	-1.751739	-0.509406	10.452817	-0.378559	4.959232	-12.081298	-14.986875	-25.753761	12.190989	-6.828656	-23.262989	0.800412	2.671022	0.242079	-2.032042	2.876769	-10.389231	-12.998045	-1.815728	21.874306	-10.278070	-3.464293	8.479919	7.526268	-13.756353	4.011400	-4.053971	-3.876296	2.021018	
0.063705	38.253887	25.058674	-1.924381	-10.263782	-4.610742	6.916956	7.327941	1.580124	-7.382945	54.607735	7.927294	5.370170	6.824368	12.417397	-0.708211	-8.546441	-0.372698	4.531172	18.109104	1.991815	0.712323	4.460874	-2.872212	4.915627	21.514851	-4.250495	2.130164	-1.638720	-0.182691	10.439775	-0.288825	5.193264	-11.818517	-14.754520	-25.575146	11.908418	-6.349374	-23.722538	0.923837	2.556983	0.711464	-2.323686	2.167963	-9.844222	-12.673388	-1.621112	21.552933	-10.914191	-5.164648	8.546461	7.489282	-13.714716	3.949811	-4.189334	-3.411796	2.145510	
-0.090153	38.292881	25.656387	-2.493105	-10.214052	-5.409824	7.570101	5.217245	2.891213	-6.464305	57.344116	7.196434	6.043812	5.401480	11.441238	0.128416	-7.498304	0.398507	4.684005	18.006226	2.033549	0.410285	3.511169	-3.000649	5.025512	21.457167	-3.136925	2.030978	-1.469719	0.095694	10.314474	-0.178049	5.379396	-11.392489	-14.553901	-25.244207	12.206306	-5.904383	-23.795626	1.110781	2.471732	1.036258	-2.729247	1.382453	-9.249334	-12.083628	-2.435651	21.881617	-11.501828	-5.899455	8.324520	7.408993	-13.535859	3.750472	-4.311837	-2.926365	2.256006	
-0.223990	38.344936	26.262300	-2.923493	-10.020463	-6.214733	8.055835	2.943383	4.058839	-5.315384	59.462864	6.092859	6.020897	4.433290	10.429184	0.849100	-6.523854	1.145161	4.669732	17.775011	2.129405	0.201073	2.654257	-3.118158	5.020411	21.120461	-1.969775	1.925411	-1.216268	0.386800	10.083878	-0.024306	5.593078	-10.870155	-14.298421	-24.832672	13.022925	-5.631042	-23.512808	1.169303	2.407243	1.348780	-3.134850	0.564475	-8.706127	-11.390935	-4.629635	23.122864	-11.736479	-5.263062	7.684312	7.053103	-13.069697	3.036129	-4.228596	-2.541842	2.809213	
